<?xml version="1.0" encoding="UTF-8" standalone="no"?>
<svg width="134px" height="67px" viewBox="0 0 134 67" version="1.1" xmlns="http://www.w3.org/2000/svg" xmlns:xlink="http://www.w3.org/1999/xlink">
    <!-- Generator: Sketch 43.1 (39012) - http://www.bohemiancoding.com/sketch -->
    <title>pattern2</title>
    <desc>Created with Sketch.</desc>
    <defs></defs>
    <g id="Home-" stroke="none" stroke-width="1" fill="none" fill-rule="evenodd">
        <g id="pattern2" fill="#8D5FFE">
            <path d="M37.0838413,16.9283941 L34.8067633,19.205472 L14.0058367,-1.61352657 L18.5419206,-1.61352657 L37.0838413,16.9283941 Z M37.0838413,33.1932367 L34.8067633,35.4703147 L2.66453526e-15,0.663551402 L5.77840943e-13,-1.61352657 L2.27707797,-1.61352657 L37.0838413,33.1932367 Z M12.6865773,25.0608154 L2.66453526e-15,37.6931765 L2.66453526e-15,33.1932367 L8.13242133,25.0608154 L2.66453526e-15,16.9283941 L2.66453526e-15,12.3923102 L12.6865773,25.0608154 Z M37.0838413,49.4580794 L18.5419206,68 L14.0058367,68 L34.8067633,47.1810014 L37.0838413,49.4580794 Z M28.9514199,41.325658 L2.27707797,68 L2.66453526e-15,68 L2.66453526e-15,65.722922 L24.397264,41.325658 L18.5419206,35.4703147 L2.66453526e-15,53.9580192 L2.66453526e-15,49.4580794 L18.5419206,30.9161587 L28.9514199,41.325658 Z M53.3486839,16.9283941 L51.0716059,19.205472 L30.2706794,-1.61352657 L34.8067633,-1.61352657 L53.3486839,16.9283941 Z M53.3486839,33.1932367 L34.8067633,51.7351573 L37.0657692,49.4580794 L34.8067633,47.1990734 L32.5296853,49.4580794 L48.794528,33.1932367 L34.8067633,19.1874 L37.0657692,16.9283941 L51.0869435,30.9314963 L48.794528,33.1932367 L51.0716059,35.4522426 L53.3486839,33.1932367 Z M53.3486839,49.4580794 L34.8067633,68 L30.2706794,68 L51.0716059,47.1810014 L48.8126,49.4580794 L51.0716059,51.7170853 L53.3486839,49.4580794 Z M118.408055,16.9283941 L116.130977,19.205472 L107.998555,11.0730507 L94.0107906,25.0608154 L102.143212,33.1932367 L91.7337126,43.602736 L89.4566346,41.325658 L97.5890559,33.1932367 L89.4566346,25.0608154 L97.5890559,16.9283941 L81.3242133,0.663551402 L83.6012913,-1.61352657 L88.1012311,-1.61352657 L85.8422251,0.663551402 L99.8661339,14.6513161 L116.130977,-1.61352657 L118.408055,0.663551402 L110.275633,8.79597273 L118.408055,16.9283941 Z M118.408055,33.1932367 L102.143212,49.4580794 L110.275633,57.5905007 L107.998555,59.8675787 L97.5890559,49.4580794 L113.853899,33.1932367 L105.721477,25.0608154 L107.998555,22.7837374 L118.408055,33.1932367 Z M77.7459479,8.79597273 L61.4811052,25.0608154 L69.6135266,33.1932367 L67.3364486,35.4703147 L59.2040273,27.3378934 L51.0716059,35.4703147 L48.794528,33.1932367 L73.191792,8.79597273 L62.8003647,-1.61352657 L67.3364486,-1.61352657 L77.7459479,8.79597273 Z M61.4811052,8.79597273 L53.3306119,16.9283941 L51.0716059,14.6693881 L59.2040273,6.51889476 L61.4811052,8.79597273 Z M102.143212,65.722922 L99.8661339,68 L75.4688699,43.602736 L51.0716059,68 L48.794528,65.722922 L65.0593706,49.4580794 L59.2040273,43.602736 L51.0716059,51.7351573 L48.794528,49.4580794 L59.2040273,39.0485801 L67.3364486,47.1810014 L81.3242133,33.1932367 L73.191792,25.0608154 L83.6012913,14.6513161 L85.8783692,16.9283941 L77.7459479,25.0608154 L85.8783692,33.1932367 L77.7459479,41.325658 L102.143212,65.722922 Z M88.1012311,68 L83.6012913,68 L75.4688699,59.8675787 L67.3364486,68 L62.8003647,68 L75.4688699,55.3134227 L88.1012311,68 Z M134.672897,16.9283941 L132.395819,19.205472 L116.130977,2.92255733 L118.389982,0.663551402 L132.395819,14.6513161 L134.672897,12.3923102 L134.672897,16.9283941 Z M134.636753,0.645479354 L132.377747,-1.61352657 L134.636753,-1.61352657 L134.636753,0.645479354 Z M126.540476,25.0608154 L118.389982,33.1932367 L116.130977,30.9342308 L121.98632,25.0608154 L116.130977,19.1874 L118.389982,16.9283941 L126.540476,25.0608154 Z M134.672897,49.4580794 L134.672897,53.9580192 L121.98632,41.325658 L132.395819,30.9161587 L134.672897,33.1932367 L134.672897,37.6931765 L132.395819,35.4341706 L126.540476,41.325658 L134.672897,49.4580794 Z M134.672897,65.722922 L134.672897,68 L132.395819,68 L113.853899,49.4580794 L116.130977,47.1810014 L134.672897,65.722922 Z" id="main"></path>
        </g>
    </g>
</svg>