<?xml version="1.0" encoding="UTF-8" standalone="no"?>
<svg width="299px" height="155px" viewBox="0 0 299 155" version="1.1" xmlns="http://www.w3.org/2000/svg" xmlns:xlink="http://www.w3.org/1999/xlink">
    <!-- Generator: Sketch 43.1 (39012) - http://www.bohemiancoding.com/sketch -->
    <title>main</title>
    <desc>Created with Sketch.</desc>
    <defs></defs>
    <g id="Home-" stroke="none" stroke-width="1" fill="none" fill-rule="evenodd">
        <path d="M82.08,41.04 L77.04,46.08 L31,1.13686838e-13 L41.04,1.14006582e-13 L82.08,41.04 Z M82.08,77.04 L77.04,82.08 L9.09494702e-13,5.04 L2.18256885e-12,1.47503537e-13 L5.04,1.13686838e-13 L82.08,77.04 Z M28.08,59.04 L1.8189894e-12,87 L1.8189894e-12,77.04 L18,59.04 L1.8189894e-12,41.04 L1.8189894e-12,31 L28.08,59.04 Z M82.08,113.04 L41.04,154.08 L31,154.08 L77.04,108 L82.08,113.04 Z M64.08,95.04 L5.04,154.08 L1.8189894e-12,154.08 L1.8189894e-12,149.04 L54,95.04 L41.04,82.08 L1.8189894e-12,123 L1.8189894e-12,113.04 L41.04,72 L64.08,95.04 Z M118.08,41.04 L113.04,46.08 L67,0 L77.04,0 L118.08,41.04 Z M118.08,77.04 L77.04,118.08 L82.04,113.04 L77.04,108.04 L72,113.04 L108,77.04 L77.04,46.04 L82.04,41.04 L113.073948,72.0339476 L108,77.04 L113.04,82.04 L118.08,77.04 Z M118.08,113.04 L77.04,154.08 L67,154.08 L113.04,108 L108.04,113.04 L113.04,118.04 L118.08,113.04 Z M262.08,41.04 L257.04,46.08 L239.04,28.08 L208.08,59.04 L226.08,77.04 L203.04,100.08 L198,95.04 L216,77.04 L198,59.04 L216,41.04 L180,5.04 L185.04,0 L195,0 L190,5.04 L221.04,36 L257.04,0 L262.08,5.04 L244.08,23.04 L262.08,41.04 Z M262.08,77.04 L226.08,113.04 L244.08,131.04 L239.04,136.08 L216,113.04 L252,77.04 L234,59.04 L239.04,54 L262.08,77.04 Z M172.08,23.04 L136.08,59.04 L154.08,77.04 L149.04,82.08 L131.04,64.08 L113.04,82.08 L108,77.04 L162,23.04 L139,1.13686838e-13 L149.04,1.13686838e-13 L172.08,23.04 Z M136.08,23.04 L118.04,41.04 L113.04,36.04 L131.04,18 L136.08,23.04 Z M226.08,149.04 L221.04,154.08 L167.04,100.08 L113.04,154.08 L108,149.04 L144,113.04 L131.04,100.08 L113.04,118.08 L108,113.04 L131.04,90 L149.04,108 L180,77.04 L162,59.04 L185.04,36 L190.08,41.04 L172.08,59.04 L190.08,77.04 L172.08,95.04 L226.08,149.04 Z M195,154.08 L185.04,154.08 L167.04,136.08 L149.04,154.08 L139,154.08 L167.04,126 L195,154.08 Z M298.08,41.04 L293.04,46.08 L257.04,10.04 L262.04,5.04 L293.04,36 L298.08,31 L298.08,41.04 Z M298,5 L293,0 L298,0 L298,5 Z M280.08,59.04 L262.04,77.04 L257.04,72.04 L270,59.04 L257.04,46.04 L262.04,41.04 L280.08,59.04 Z M298.08,113.04 L298.08,123 L270,95.04 L293.04,72 L298.08,77.04 L298.08,87 L293.04,82 L280.08,95.04 L298.08,113.04 Z M298.08,149.04 L298.08,154.08 L293.04,154.08 L252,113.04 L257.04,108 L298.08,149.04 Z" id="main" fill="#8D5FFE"></path>
    </g>
</svg>